<svg width="48" height="48" viewBox="0 0 48 48" fill="none" xmlns="http://www.w3.org/2000/svg">
<path fill-rule="evenodd" clip-rule="evenodd" d="M7 20.4545C7 11.9192 13.9192 5 22.4545 5C23.3081 5 24 5.69193 24 6.54546V47C24 47.5523 23.5523 48 23 48H20C17.2386 48 15 45.7614 15 43V40H13C9.68629 40 7 37.3137 7 34V20.4545ZM16.5 34C18.9853 34 21 31.9853 21 29.5C21 27.0147 18.9853 25 16.5 25C14.0147 25 12 27.0147 12 29.5C12 31.9853 14.0147 34 16.5 34Z" fill="#ED3501"/>
<path fill-rule="evenodd" clip-rule="evenodd" d="M42 20.4545C42 11.9192 35.0808 5 26.5455 5C25.6919 5 25 5.69192 25 6.54545V47C25 47.5523 25.4477 48 26 48H29C31.7614 48 34 45.7614 34 43V40H36C39.3137 40 42 37.3137 42 34V20.4545ZM32.5 34C30.0147 34 28 31.9853 28 29.5C28 27.0147 30.0147 25 32.5 25C34.9853 25 37 27.0147 37 29.5C37 31.9853 34.9853 34 32.5 34Z" fill="#ED3501"/>
</svg>
