<svg width="48" height="48" viewBox="0 0 48 48" fill="none" xmlns="http://www.w3.org/2000/svg">
<g clip-path="url(#clip0_68_49)">
<path d="M18.1122 2.88781L29.6426 2.90247L29.6963 45.1806L18.1659 45.1659L18.1122 2.88781Z" fill="#ED3501"/>
<path d="M2.13561 28.048C3.21082 29.1232 3.9247 29.449 5.33154 29.4072L4.61794 29.4063L43.0526 29.4551L41.4996 29.4532C42.8254 29.435 43.4971 29.0673 44.5075 28.0569C46.5687 25.9957 46.5644 22.6496 44.498 20.5831C43.4242 19.5093 42.4178 19.1301 41.0127 19.1705L5.80904 18.8644C4.40208 18.819 3.19859 19.5017 2.1261 20.5742C0.0648986 22.6354 0.0691532 25.9815 2.13561 28.048Z" fill="#ED3501"/>
</g>
<defs>
<clipPath id="clip0_68_49">
<rect width="48" height="48" fill="white"/>
</clipPath>
</defs>
</svg>
