<svg width="48" height="48" viewBox="0 0 48 48" fill="none" xmlns="http://www.w3.org/2000/svg">
<path fill-rule="evenodd" clip-rule="evenodd" d="M6.89617 21.5814L19.5 7.00001V21.7102H29.5V7L42.1039 21.5815C44.4897 23.5528 46 26.4706 46 29.7264C46 35.6634 40.9778 40.4764 34.7826 40.4764C30.184 40.4764 26.2317 37.8245 24.5 34.0294C22.7683 37.8245 18.816 40.4764 14.2174 40.4764C8.0222 40.4764 3 35.6634 3 29.7264C3 26.4705 4.51032 23.5528 6.89617 21.5814ZM29.5 24.2102C29.5 26.6954 27.2614 28.7102 24.5 28.7102C21.7386 28.7102 19.5 26.6954 19.5 24.2102C19.5 24.0412 19.5104 23.8743 19.5305 23.7102H29.4695C29.4896 23.8743 29.5 24.0412 29.5 24.2102Z" fill="#ED3501"/>
</svg>
