<svg width="48" height="48" viewBox="0 0 48 48" fill="none" xmlns="http://www.w3.org/2000/svg">
<path d="M26.5 14C26.5 16.2091 24.7092 18 22.5 18C20.2909 18 18.5 16.2091 18.5 14C18.5 11.7909 20.2909 10 22.5 10C24.7092 10 26.5 11.7909 26.5 14Z" fill="#ED3501"/>
<path d="M22.9749 24.0001C22.6927 23.5513 22.5863 22.9885 22.5833 22L22.5664 21.0848C23.0365 21.0288 23.5149 21 24 21C30.6274 21 36 26.3726 36 33C36 39.6274 30.6274 45 24 45C17.3726 45 12 39.6274 12 33C12 32.7158 12.0099 32.4338 12.0293 32.1545C12.6483 28.8974 15.1359 26.2984 18.2855 26.181C17.179 27.4361 16.5 29.1327 16.5 31C16.5 34.866 19.4102 38 23 38C26.5899 38 29.5 34.866 29.5 31C29.5 27.134 26.5899 24 23 24C22.9916 24 22.9832 24 22.9749 24.0001Z" fill="#ED3501"/>
<path d="M21.5 3H23.5V24H21.5V3Z" fill="#ED3501"/>
</svg>
