<svg width="48" height="48" viewBox="0 0 48 48" fill="none" xmlns="http://www.w3.org/2000/svg">
<path d="M6.0253 9.49752C5.73096 6.55409 8.04238 4 11.0005 4H37.9506C40.9087 4 43.2201 6.55409 42.9258 9.49752L42.5656 13.0995C42.5145 13.6107 42.0843 14 41.5706 14H33.0035L32.7242 12.1838C32.5563 11.0921 31.5351 10.3432 30.4434 10.5111L17.2768 12.5361C16.4665 12.6608 15.8451 13.2554 15.6472 14H7.38054C6.86679 14 6.43662 13.6107 6.3855 13.0995L6.0253 9.49752Z" fill="#ED3501"/>
<path d="M15.6322 15H9.62814C8.46575 15 7.54822 15.9875 7.63354 17.1468L9.39977 41.1468C9.47666 42.1916 10.3468 43 11.3944 43H37.6133C38.6626 43 39.5335 42.1891 39.6082 41.1425L41.3225 17.1425C41.4052 15.9848 40.4883 15 39.3276 15H33.1573L34.6956 25.0017C34.8635 26.0934 34.1146 27.1146 33.0229 27.2825L19.8562 29.3075C18.7645 29.4754 17.7434 28.7265 17.5755 27.6348L15.6322 15Z" fill="#ED3501"/>
</svg>
