<svg width="48" height="48" viewBox="0 0 48 48" fill="none" xmlns="http://www.w3.org/2000/svg">
<path d="M24.4316 37.5666C27.6115 40.5568 32.5069 41.2065 36.4322 38.8467L37.0651 38.4662C41.7985 35.6207 43.329 29.4768 40.4835 24.7435L36.0361 17.3454C37.0772 20.5076 36.5169 24.1191 34.2335 26.8695L27.344 35.1684C26.5078 36.1757 25.5155 36.9771 24.4316 37.5666Z" fill="#ED3501"/>
<path d="M19 2.92871C19 3.481 18.5523 3.92871 18 3.92871C17.4477 3.92871 17 3.481 17 2.92871C17 2.37643 17.4477 1.92871 18 1.92871C18.5523 1.92871 19 2.37643 19 2.92871Z" fill="#ED3501"/>
<path d="M21 5.92871C21 6.481 20.5523 6.92871 20 6.92871C19.4477 6.92871 19 6.481 19 5.92871C19 5.37643 19.4477 4.92871 20 4.92871C20.5523 4.92871 21 5.37643 21 5.92871Z" fill="#ED3501"/>
<path d="M23.5 8.42871C23.5 8.981 23.0523 9.42871 22.5 9.42871C21.9477 9.42871 21.5 8.981 21.5 8.42871C21.5 7.87643 21.9477 7.42871 22.5 7.42871C23.0523 7.42871 23.5 7.87643 23.5 8.42871Z" fill="#ED3501"/>
<path fill-rule="evenodd" clip-rule="evenodd" d="M16.8307 12.6602C18.2428 10.9593 20.0997 9.84547 22.0916 9.3475C22.2501 9.69061 22.5972 9.92871 23 9.92871C23.5071 9.92871 23.9261 9.55121 23.9912 9.06186C26.4168 8.93164 28.896 9.67955 30.9123 11.3535L31.4805 11.8252C35.7299 15.3529 36.315 21.6575 32.7873 25.9068L25.8978 34.2058C22.3701 38.4551 16.0655 39.0402 11.8161 35.5125L11.2479 35.0408C6.99854 31.5131 6.4135 25.2085 9.94121 20.9591L16.8307 12.6602ZM28 17.4287C29.3807 17.4287 30.5 16.3094 30.5 14.9287C30.5 13.548 29.3807 12.4287 28 12.4287C26.6193 12.4287 25.5 13.548 25.5 14.9287C25.5 16.3094 26.6193 17.4287 28 17.4287ZM25 12.9287C25.5523 12.9287 26 12.481 26 11.9287C26 11.3764 25.5523 10.9287 25 10.9287C24.4477 10.9287 24 11.3764 24 11.9287C24 12.481 24.4477 12.9287 25 12.9287Z" fill="#ED3501"/>
<path d="M28 13.9287C28 14.481 27.5523 14.9287 27 14.9287C26.4477 14.9287 26 14.481 26 13.9287C26 13.3764 26.4477 12.9287 27 12.9287C27.5523 12.9287 28 13.3764 28 13.9287Z" fill="#ED3501"/>
<path d="M32 9.92871C32 10.481 31.5523 10.9287 31 10.9287C30.4477 10.9287 30 10.481 30 9.92871C30 9.37643 30.4477 8.92871 31 8.92871C31.5523 8.92871 32 9.37643 32 9.92871Z" fill="#ED3501"/>
<path d="M34 6.92871C34 7.481 33.5523 7.92871 33 7.92871C32.4477 7.92871 32 7.481 32 6.92871C32 6.37643 32.4477 5.92871 33 5.92871C33.5523 5.92871 34 6.37643 34 6.92871Z" fill="#ED3501"/>
<path d="M36 3.92871C36 4.481 35.5523 4.92871 35 4.92871C34.4477 4.92871 34 4.481 34 3.92871C34 3.37643 34.4477 2.92871 35 2.92871C35.5523 2.92871 36 3.37643 36 3.92871Z" fill="#ED3501"/>
</svg>
