<svg width="48" height="48" viewBox="0 0 48 48" fill="none" xmlns="http://www.w3.org/2000/svg">
<path fill-rule="evenodd" clip-rule="evenodd" d="M6.65347 14.7125C4.27723 18.3464 1.26732 22.1125 0 23.5C1.26732 24.8875 4.27723 28.6536 6.65347 32.2875C9.9802 37.375 16.6337 42 23.7624 42H24.2376C31.3663 42 38.0198 37.375 41.3465 32.2875C43.7228 28.6536 46.7327 24.8875 48 23.5C46.7327 22.1125 43.7228 18.3464 41.3465 14.7125C38.0198 9.625 31.3663 5 24.2376 5H23.7624C16.6337 5 9.9802 9.625 6.65347 14.7125ZM24.2376 38.3C32.3743 38.3 38.9703 31.8809 38.9703 23.9625C38.9703 16.0441 32.3743 9.625 24.2376 9.625C16.101 9.625 9.50495 16.0441 9.50495 23.9625C9.50495 31.8809 16.101 38.3 24.2376 38.3Z" fill="#ED3501"/>
<path d="M31.3663 23.9625C31.3663 27.794 28.1747 30.9 24.2376 30.9C20.3005 30.9 17.1089 27.794 17.1089 23.9625C17.1089 20.131 20.3005 17.025 24.2376 17.025C28.1747 17.025 31.3663 20.131 31.3663 23.9625Z" fill="#ED3501"/>
</svg>
