<svg width="48" height="48" viewBox="0 0 48 48" fill="none" xmlns="http://www.w3.org/2000/svg">
<path fill-rule="evenodd" clip-rule="evenodd" d="M12.3112 6.54535C13.0036 5.97061 13.4444 5.10346 13.4444 4.13333C13.4444 2.40284 12.0416 1 10.3111 1C8.58062 1 7.17778 2.40284 7.17778 4.13333C7.17778 4.21546 7.18094 4.29685 7.18714 4.37738C6.82306 4.22034 6.42169 4.13333 6 4.13333C4.34315 4.13333 3 5.47648 3 7.13333C3 8.79019 4.34315 10.1333 6 10.1333C6.72756 10.1333 7.39463 9.87434 7.91404 9.44351L12.0102 14.187C10.2836 16.5019 9.26667 19.342 9.26667 22.4111C9.26667 26.4788 11.053 30.1442 13.9104 32.7177L8.21226 39.3164C7.68844 38.8697 7.00904 38.6 6.26667 38.6C4.60981 38.6 3.26667 39.9431 3.26667 41.6C3.26667 43.2569 4.60981 44.6 6.26667 44.6C6.69415 44.6 7.10074 44.5106 7.46878 44.3494C7.45272 44.4751 7.44444 44.6033 7.44444 44.7333C7.44444 46.3902 8.78759 47.7333 10.4444 47.7333C12.1013 47.7333 13.4444 46.3902 13.4444 44.7333C13.4444 43.8233 13.0392 43.0079 12.3994 42.4577L16.8925 37.2545C18.3293 38.4549 20.7674 39.2444 23.5333 39.2444C27.0074 39.2444 29.9642 37.9988 31.0694 36.2583L36.4228 42.4577C35.783 43.0079 35.3778 43.8233 35.3778 44.7333C35.3778 46.3902 36.7209 47.7333 38.3778 47.7333C40.0346 47.7333 41.3778 46.3902 41.3778 44.7333C41.3778 44.6033 41.3695 44.4751 41.3534 44.3494C41.7215 44.5106 42.1281 44.6 42.5556 44.6C44.2124 44.6 45.5556 43.2569 45.5556 41.6C45.5556 39.9431 44.2124 38.6 42.5556 38.6C41.8132 38.6 41.1338 38.8697 40.61 39.3164L34.4408 32.1722C36.9618 29.6388 38.5111 26.1994 38.5111 22.4111C38.5111 19.6308 37.6766 17.0384 36.2359 14.8542L40.9082 9.44351C41.4276 9.87434 42.0947 10.1333 42.8222 10.1333C44.4791 10.1333 45.8222 8.79019 45.8222 7.13333C45.8222 5.47648 44.4791 4.13333 42.8222 4.13333C42.4005 4.13333 41.9992 4.22034 41.6351 4.37738C41.6413 4.29685 41.6444 4.21546 41.6444 4.13333C41.6444 2.40284 40.2416 1 38.5111 1C36.7806 1 35.3778 2.40284 35.3778 4.13333C35.3778 5.10346 35.8187 5.97061 36.511 6.54535L32.5942 11.0811C30.1621 9.34067 27.1502 8.31111 23.8889 8.31111C20.9165 8.31111 18.1512 9.16636 15.8433 10.6356L12.3112 6.54535ZM9.02831 6.99289L8.99787 7.01918L8.99606 6.97818L9.02831 6.99289ZM39.7939 6.99289L39.8244 7.01918L39.8262 6.97818L39.7939 6.99289ZM32.2444 23.9778C32.2444 25.7083 30.8416 27.1111 29.1111 27.1111C27.3806 27.1111 25.9778 25.7083 25.9778 23.9778C25.9778 22.2473 27.3806 20.8444 29.1111 20.8444C30.8416 20.8444 32.2444 22.2473 32.2444 23.9778ZM18.6667 27.1111C20.3972 27.1111 21.8 25.7083 21.8 23.9778C21.8 22.2473 20.3972 20.8444 18.6667 20.8444C16.9362 20.8444 15.5333 22.2473 15.5333 23.9778C15.5333 25.7083 16.9362 27.1111 18.6667 27.1111Z" fill="#ED3501"/>
</svg>
