<svg width="48" height="48" viewBox="0 0 48 48" fill="none" xmlns="http://www.w3.org/2000/svg">
<path fill-rule="evenodd" clip-rule="evenodd" d="M8 17C8 8.16344 15.1634 1 24 1C32.8366 1 40 8.16344 40 17V26C40 30.4183 36.4183 34 32 34V40C32 43.3137 29.3137 46 26 46H21C17.6863 46 15 43.3137 15 40V34H14C10.6863 34 8 31.3137 8 28V17ZM36 21.5C36 23.9853 33.9853 26 31.5 26C29.0147 26 27 23.9853 27 21.5C27 19.0147 29.0147 17 31.5 17C33.9853 17 36 19.0147 36 21.5ZM16.5 26C18.9853 26 21 23.9853 21 21.5C21 19.0147 18.9853 17 16.5 17C14.0147 17 12 19.0147 12 21.5C12 23.9853 14.0147 26 16.5 26ZM28 32.5C28 30.0147 25.9853 28 23.5 28C21.0147 28 19 30.0147 19 32.5V35.5C19 37.9853 21.0147 40 23.5 40C25.9853 40 28 37.9853 28 35.5V32.5Z" fill="#ED3501"/>
</svg>
