<svg width="48" height="48" viewBox="0 0 48 48" fill="none" xmlns="http://www.w3.org/2000/svg">
<path fill-rule="evenodd" clip-rule="evenodd" d="M43 23.5C43 34.2696 34.2696 43 23.5 43C12.7304 43 4 34.2696 4 23.5C4 12.7304 12.7304 4 23.5 4C34.2696 4 43 12.7304 43 23.5ZM28 24C28 26.7614 25.7614 29 23 29C20.2386 29 18 26.7614 18 24C18 21.2386 20.2386 19 23 19C25.7614 19 28 21.2386 28 24ZM23 26C24.1046 26 25 25.1046 25 24C25 22.8954 24.1046 22 23 22C21.8954 22 21 22.8954 21 24C21 25.1046 21.8954 26 23 26Z" fill="#ED3501"/>
</svg>
