<svg width="48" height="48" viewBox="0 0 48 48" fill="none" xmlns="http://www.w3.org/2000/svg">
<path d="M18.8277 8.61039C17.609 6.57054 18.2747 3.92898 20.3146 2.71031L20.5549 2.56676C22.4513 1.43375 24.9072 2.05265 26.0402 3.94911L32.4873 14.7404C33.9544 15.4057 35.3748 17.7835 36.3295 21.0534H43V41.0534H36L31.5556 45.0534H10.5C8.567 45.0534 7 43.4864 7 41.5534V40.0534C7 38.9488 7.89543 38.0534 9 38.0534H8.5C6.567 38.0534 5 36.4864 5 34.5534V33.0534C5 31.8548 5.70297 30.8203 6.71913 30.3398C5.68012 29.6174 5 28.4148 5 27.0534V26.5534C5 24.6369 6.54047 23.0801 8.45076 23.0538C7.61324 22.8151 7 22.0442 7 21.1301V19.6301C7 17.6971 8.567 16.1301 10.5 16.1301H23.3203L18.8277 8.61039Z" fill="#ED3501"/>
</svg>
