<svg width="48" height="48" viewBox="0 0 48 48" fill="none" xmlns="http://www.w3.org/2000/svg">
<g clip-path="url(#clip0_68_43)">
<path d="M23.0489 2.92705C23.3483 2.00574 24.6517 2.00574 24.9511 2.92705L29.1638 15.8926C29.2977 16.3046 29.6817 16.5836 30.1149 16.5836H43.7477C44.7164 16.5836 45.1192 17.8232 44.3355 18.3926L33.3063 26.4058C32.9558 26.6604 32.8092 27.1118 32.943 27.5238L37.1558 40.4894C37.4551 41.4107 36.4007 42.1768 35.6169 41.6074L24.5878 33.5942C24.2373 33.3396 23.7627 33.3396 23.4122 33.5942L12.3831 41.6074C11.5993 42.1768 10.5449 41.4107 10.8442 40.4894L15.057 27.5238C15.1909 27.1118 15.0442 26.6604 14.6937 26.4058L3.66454 18.3926C2.88083 17.8232 3.2836 16.5836 4.25233 16.5836H17.8851C18.3183 16.5836 18.7023 16.3046 18.8362 15.8926L23.0489 2.92705Z" fill="#ED3501"/>
</g>
<defs>
<clipPath id="clip0_68_43">
<rect width="48" height="48" fill="white"/>
</clipPath>
</defs>
</svg>
