<svg width="48" height="48" viewBox="0 0 48 48" fill="none" xmlns="http://www.w3.org/2000/svg">
<g opacity="0.91">
<path fill-rule="evenodd" clip-rule="evenodd" d="M24.9377 6.5C24.5528 5.83333 23.5905 5.83333 23.2056 6.5L14.5454 21.5C14.1605 22.1667 14.6416 23 15.4114 23H32.7319C33.5017 23 33.9828 22.1667 33.5979 21.5L24.9377 6.5ZM24.0716 19.5C25.8666 19.5 27.3216 18.0449 27.3216 16.25C27.3216 14.4551 25.8666 13 24.0716 13C22.2767 13 20.8217 14.4551 20.8217 16.25C20.8217 18.0449 22.2767 19.5 24.0716 19.5Z" fill="#ED3501"/>
<path d="M13.3259 24L4.13103 40.2577C3.75401 40.9243 4.2356 41.75 5.00146 41.75H43.1418C43.9077 41.75 44.3893 40.9243 44.0123 40.2577L34.8174 24H13.3259Z" fill="#ED3501"/>
</g>
</svg>
