<svg width="48" height="48" viewBox="0 0 48 48" fill="none" xmlns="http://www.w3.org/2000/svg">
<path d="M17 5H29V8.5C29 9.32843 29.6716 10 30.5 10C31.3284 10 32 9.32843 32 8.5V5.06189C32.3404 5.10435 32.6742 5.16819 33 5.25204V11.5C33 12.3284 33.6716 13 34.5 13C35.3284 13 36 12.3284 36 11.5V6.75463C37.8289 8.22075 39 10.4736 39 13V15H9V13C9 8.58172 12.5817 5 17 5Z" fill="#ED3501"/>
<path d="M38 17H11C9.49999 17.5 10.5 18.5 12.5 18.5C13.3 19.7 15.8333 19 17 18.5C21.5 18 30.6 17.3 31 18.5C31.5 20 35.5 20.5 36 19C36.1788 18.4636 36.6973 18.3068 37.1715 18.1635C37.7579 17.9862 38.2765 17.8295 38 17Z" fill="#ED3501"/>
<path d="M11.5 35C11.5 34.4683 11.3691 33.9169 11.1943 33.4243C9.84964 32.251 9 30.5247 9 28.6C9 27.7163 9.71634 27 10.6 27H37.4C38.2837 27 39 27.7163 39 28.6C39 32.1346 36.1346 35 32.6 35H23C23 38 20 37.5 20 36.5C20 35.5 18.5 35 17.5 36C17.2621 38.6167 17.3638 40.2148 17.428 41.2251C17.4988 42.3384 17.5242 42.7379 17 43C16 43.5 15.5 43 15.5 41.5C15.5 40 15 36.5 14 36.5C13.5858 36.5 13.6005 37.1005 13.6177 37.804C13.6421 38.799 13.6716 40 12.5 40C10.9566 40 11.1998 37.9156 11.3912 36.2745C11.4479 35.7891 11.5 35.3424 11.5 35Z" fill="#ED3501"/>
<path d="M12.5 21C11.1193 21 10 22.1193 10 23.5C10 24.8807 11.1193 26 12.5 26H35.5C36.8807 26 38 24.8807 38 23.5C38 22.1193 36.8807 21 35.5 21H12.5Z" fill="#ED3501"/>
</svg>
