<svg width="48" height="48" viewBox="0 0 48 48" fill="none" xmlns="http://www.w3.org/2000/svg">
<path fill-rule="evenodd" clip-rule="evenodd" d="M8.76295 38.7095C-0.171933 27.6512 8.59961 8.95005 16.4747 1.20893C16.6578 1.02893 16.9092 0.931308 17.1336 1.05612C18.4839 1.80718 21.0112 5.91414 22.2306 7.8957L22.2559 7.93684H25.7559L25.7812 7.8957C27.0006 5.91414 29.5278 1.80718 30.8781 1.05612C31.1025 0.931308 31.3539 1.02893 31.537 1.20893C39.9506 9.47933 49.3873 30.2597 37.1618 40.8646C33.9516 44.5771 29.1374 46.9368 23.7559 46.9368C17.395 46.9368 11.8267 43.6401 8.76295 38.7095ZM20.0723 30.9368C20.7389 28.2702 20.3723 23.1368 13.5723 23.9368C11.5723 28.9368 15.0723 32.4368 20.0723 30.9368ZM28.3055 31.0205C27.6389 28.3539 28.0055 23.2205 34.8055 24.0205C36.8055 29.0205 33.3055 32.5205 28.3055 31.0205Z" fill="#ED3501"/>
</svg>
