<svg width="48" height="48" viewBox="0 0 48 48" fill="none" xmlns="http://www.w3.org/2000/svg">
<path fill-rule="evenodd" clip-rule="evenodd" d="M43 19C43 25.9595 38.9406 31.9965 33 34.9918V40C33 43.3137 29.1944 46 24.5 46C19.8056 46 16 43.3137 16 40V34.9918C10.0594 31.9965 6 25.9595 6 19C6 9.05887 14.2827 1 24.5 1C34.7173 1 43 9.05887 43 19ZM37 25C37 27.7614 34.7614 30 32 30C29.2386 30 27 27.7614 27 25C27 22.2386 29.2386 20 32 20C34.7614 20 37 22.2386 37 25ZM17 30C19.7614 30 22 27.7614 22 25C22 22.2386 19.7614 20 17 20C14.2386 20 12 22.2386 12 25C12 27.7614 14.2386 30 17 30Z" fill="#ED3501"/>
</svg>
