<svg width="48" height="48" viewBox="0 0 48 48" fill="none" xmlns="http://www.w3.org/2000/svg">
<path fill-rule="evenodd" clip-rule="evenodd" d="M7 14C7 7.37259 12.3726 2 19 2H30C36.6274 2 42 7.37258 42 14V30.7368C42 34.0505 39.3137 36.7368 36 36.7368H31.1379V39.0526H17.8621V36.7368H13C9.68629 36.7368 7 34.0506 7 30.7368V14ZM21.4828 25.1579C21.4828 27.7158 19.3214 29.7895 16.6552 29.7895C13.989 29.7895 11.8276 27.7158 11.8276 25.1579C11.8276 22.5999 13.989 20.5263 16.6552 20.5263C19.3214 20.5263 21.4828 22.5999 21.4828 25.1579ZM32.3448 29.7895C35.011 29.7895 37.1724 27.7158 37.1724 25.1579C37.1724 22.5999 35.011 20.5263 32.3448 20.5263C29.6786 20.5263 27.5172 22.5999 27.5172 25.1579C27.5172 27.7158 29.6786 29.7895 32.3448 29.7895Z" fill="#ED3501"/>
<path d="M31.1379 40.693C31.1379 43.624 28.166 46 24.5 46C20.834 46 17.8621 43.624 17.8621 40.693C17.8621 40.5304 17.8712 40.3694 17.8891 40.2105H31.1109C31.1288 40.3694 31.1379 40.5304 31.1379 40.693Z" fill="#ED3501"/>
</svg>
