<svg width="48" height="48" viewBox="0 0 48 48" fill="none" xmlns="http://www.w3.org/2000/svg">
<path fill-rule="evenodd" clip-rule="evenodd" d="M24 5.01158C19.8333 4.84491 11.6 6.41158 8 14.0116V23.5116C8.66667 24.1782 9.5 26.5116 9.5 27.5116C9 29.5116 9.5 31.5116 10 32.0116C10.5 32.5116 13 35.0116 15.5 35.0116C17 35.0116 17.0049 39.2141 17 40.0116C16.8333 40.8449 17.5 41.6116 24 42.0116C30 42.0116 31.1667 40.8449 31 40.0116C30.9951 39.2141 31 35.0116 32.5 35.0116C35 35.0116 37.5 32.5116 38 32.0116C38.5 31.5116 39 29.5116 38.5 27.5116C38.5 26.5116 39.3333 24.1782 40 23.5116V14.0116C36.4 6.41158 28.1667 4.84491 24 5.01158ZM21.5 25.5116C21.5 27.9969 18.4853 30.5116 16 30.5116C13.5147 30.5116 12.5 27.9969 12.5 25.5116C12.5 23.0263 15.0147 20.5116 17.5 20.5116C19.9853 20.5116 21.5 23.0263 21.5 25.5116ZM27.5 25.5116C27.5 27.9969 30.5147 30.5116 33 30.5116C35.4853 30.5116 36.5 27.9969 36.5 25.5116C36.5 23.0263 33.9853 20.5116 31.5 20.5116C29.0147 20.5116 27.5 23.0263 27.5 25.5116ZM22 34.0116C23.5802 34.4066 23.9119 32.929 23.9815 32.2912C24.091 32.9864 24.4896 34.2016 25.94 33.839C27.7943 33.3754 24.491 27.9026 23.9998 27.5061C23.9984 27.4856 23.9886 27.4798 23.9714 27.4874C23.9517 27.4783 23.9408 27.4849 23.94 27.5088C23.4484 27.9278 20.1459 33.548 22 34.0116Z" fill="#ED3501"/>
</svg>
