<svg width="48" height="48" viewBox="0 0 48 48" fill="none" xmlns="http://www.w3.org/2000/svg">
<path d="M22.1605 5L14.0802 7.85185L6 15.4568V16.4074H20.7345V13.5556H24.0617V5H22.1605Z" fill="#ED3501"/>
<path d="M42.1235 16.8827H27.3889V19.7346H20.7346V16.8827H6V43.5H18.358V33.9938H29.7654V43.5H42.1235V16.8827Z" fill="#ED3501"/>
<path d="M34.0432 7.85185L25.963 5H24.0617V13.5556H27.3889V16.4074H42.1234V15.4568L34.0432 7.85185Z" fill="#ED3501"/>
<path d="M24.0617 13.5556H20.7345V16.4074H6V15.4568L14.0802 7.85185L22.1605 5H24.0617M24.0617 13.5556V5M24.0617 13.5556H27.3889V16.4074H42.1234V15.4568L34.0432 7.85185L25.963 5H24.0617M42.1235 16.8827H27.3889V19.7346H20.7346V16.8827H6V43.5H18.358V33.9938H29.7654V43.5H42.1235V16.8827Z" stroke="#ED3501" stroke-width="0.950617"/>
</svg>
