<svg width="48" height="48" viewBox="0 0 48 48" fill="none" xmlns="http://www.w3.org/2000/svg">
<path fill-rule="evenodd" clip-rule="evenodd" d="M43 25.5C43 28.5077 42.5017 31.3775 41.5974 34H6.40256C5.49833 31.3775 5 28.5077 5 25.5C5 13.0736 13.5066 3 24 3C34.4934 3 43 13.0736 43 25.5ZM15 18H10V23C10 26.3137 12.6863 29 16 29H21V24C21 20.6863 18.3137 18 15 18ZM38 18H33C29.6863 18 27 20.6863 27 24V29H32C35.3137 29 38 26.3137 38 23V18Z" fill="#ED3501"/>
<path d="M20.5 37C21.898 37 23.1046 37.8196 23.6654 39.0046C23.7761 39.0015 23.8877 39 24 39C24.1123 39 24.2239 39.0015 24.3346 39.0046C24.8954 37.8196 26.102 37 27.5 37C29.433 37 31 38.567 31 40.5C31 41.9023 30.1753 43.112 28.9845 43.6705C27.9074 44.4723 26.077 45 24 45C21.923 45 20.0926 44.4723 19.0155 43.6705C17.8247 43.112 17 41.9023 17 40.5C17 38.567 18.567 37 20.5 37Z" fill="#ED3501"/>
</svg>
