<svg width="48" height="48" viewBox="0 0 48 48" fill="none" xmlns="http://www.w3.org/2000/svg">
<path fill-rule="evenodd" clip-rule="evenodd" d="M5.07652 1C3.19702 2.83427 2 5.6028 2 8.70024C2 11.8309 3.22286 14.6256 5.13728 16.4592C3.76857 19.2478 3 22.3843 3 25.7002C3 37.2982 12.402 46.7002 24 46.7002C35.598 46.7002 45 37.2982 45 25.7002C45 22.0697 44.0787 18.6543 42.4571 15.6751C43.888 13.9564 44.7647 11.6418 44.7647 9.09585C44.7647 6.12095 43.5677 3.46195 41.6882 1.70024L35.2622 7.97246C32.0076 5.90055 28.144 4.70024 24 4.70024C19.6476 4.70024 15.6044 6.02433 12.2514 8.29166L5.07652 1ZM20 25.7002C20 29.5662 16.866 32.7002 13 32.7002C9.13401 32.7002 6 29.5662 6 25.7002C6 21.8342 9.13401 18.7002 13 18.7002C16.866 18.7002 20 21.8342 20 25.7002ZM34 32.7002C37.866 32.7002 41 29.5662 41 25.7002C41 21.8342 37.866 18.7002 34 18.7002C30.134 18.7002 27 21.8342 27 25.7002C27 29.5662 30.134 32.7002 34 32.7002Z" fill="#ED3501"/>
</svg>
